<?xml version="1.0" standalone="no"?>
<!DOCTYPE svg PUBLIC "-//W3C//DTD SVG 20010904//EN"
 "http://www.w3.org/TR/2001/REC-SVG-20010904/DTD/svg10.dtd">
<svg version="1.0" xmlns="http://www.w3.org/2000/svg"
 width="512.000000pt" height="512.000000pt" viewBox="0 0 512.000000 512.000000"
 preserveAspectRatio="xMidYMid meet">
<metadata>
Created by potrace 1.14, written by Peter Selinger 2001-2017
</metadata>
<g transform="translate(0.000000,512.000000) scale(0.100000,-0.100000)"
fill="#000000" stroke="none">
<path d="M2369 5116 c-2 -2 -34 -6 -70 -10 -948 -89 -1796 -741 -2134 -1642
-36 -95 -98 -303 -109 -361 -2 -15 -9 -53 -15 -83 -29 -159 -36 -244 -35 -470
0 -113 4 -234 8 -270 5 -36 10 -72 11 -80 15 -121 67 -336 116 -478 138 -401
392 -782 716 -1074 347 -312 840 -548 1288 -614 22 -3 51 -8 65 -10 121 -20
470 -26 610 -11 119 13 120 14 215 31 545 101 1071 400 1440 818 131 148 254
323 329 468 22 41 47 89 56 105 81 147 193 495 225 696 24 151 30 242 30 439
-1 201 -10 320 -35 445 -24 122 -30 147 -54 233 -166 590 -523 1084 -1038
1436 -53 36 -100 66 -104 66 -4 0 -15 6 -23 14 -20 18 -257 137 -331 166 -142
57 -380 128 -490 146 -14 2 -38 6 -55 9 -16 3 -50 8 -75 11 -25 3 -56 8 -70
11 -28 5 -466 14 -471 9z m-713 -2031 c1 -940 -2 -893 61 -1045 47 -116 145
-246 240 -322 122 -96 311 -166 440 -164 l57 1 0 1195 1 1195 600 0 c653 -1
666 -2 845 -61 80 -27 223 -93 228 -106 2 -4 8 -8 13 -8 22 0 141 -93 224
-175 228 -226 345 -502 350 -830 3 -159 -9 -246 -56 -390 -75 -236 -224 -443
-429 -594 -74 -55 -260 -159 -260 -145 0 3 -6 2 -12 -4 -13 -11 -170 -57 -223
-66 -75 -13 -152 -18 -310 -20 l-170 -2 0 -397 c0 -346 -2 -397 -15 -398 -76
-5 -828 -2 -905 3 -206 15 -397 68 -590 164 -163 80 -292 172 -414 294 -166
165 -296 362 -368 555 -8 22 -19 49 -23 60 -14 34 -59 217 -66 270 -3 28 -9
59 -11 70 -6 21 -12 1766 -7 1775 1 4 182 6 400 5 l398 0 2 -860z"/>
<path d="M3259 3146 c-1 -1 -3 -180 -4 -398 -1 -354 0 -397 14 -400 9 -2 82
-3 164 -2 171 3 229 16 310 71 121 82 179 201 173 352 -6 169 -133 323 -301
367 -22 5 -344 14 -356 10z"/>
</g>
</svg>
