<?xml version="1.0" standalone="no"?>
<!DOCTYPE svg PUBLIC "-//W3C//DTD SVG 20010904//EN"
 "http://www.w3.org/TR/2001/REC-SVG-20010904/DTD/svg10.dtd">
<svg version="1.0" xmlns="http://www.w3.org/2000/svg"
 width="512.000000pt" height="512.000000pt" viewBox="0 0 512.000000 512.000000"
 preserveAspectRatio="xMidYMid meet">
<metadata>
Created by potrace 1.14, written by Peter Selinger 2001-2017
</metadata>
<g transform="translate(0.000000,512.000000) scale(0.100000,-0.100000)"
fill="#000000" stroke="none">
<path d="M2369 5116 c-2 -2 -34 -6 -70 -10 -170 -16 -411 -69 -584 -129 -709
-247 -1287 -811 -1551 -1514 -35 -94 -97 -302 -108 -360 -2 -15 -9 -53 -15
-83 -29 -159 -36 -244 -35 -470 0 -113 4 -234 8 -270 5 -36 10 -72 11 -80 15
-120 58 -300 108 -450 17 -52 32 -97 32 -100 1 -5 19 -46 62 -144 137 -308
366 -620 630 -858 347 -312 840 -548 1288 -614 22 -3 51 -8 65 -10 119 -20
470 -26 605 -11 126 14 139 16 245 36 537 105 1051 400 1415 813 131 148 254
323 329 468 22 41 47 89 56 105 94 172 207 539 236 770 3 28 8 61 10 75 9 49
11 456 3 525 -15 132 -20 168 -31 219 -5 28 -14 69 -18 92 -24 113 -95 334
-148 456 -199 456 -507 827 -924 1112 -53 36 -100 66 -104 66 -4 0 -15 6 -23
14 -20 18 -257 137 -331 166 -142 57 -380 128 -490 146 -14 2 -38 6 -55 9 -16
3 -50 8 -75 11 -25 3 -56 8 -70 11 -28 5 -466 14 -471 9z m491 -530 c444 -70
825 -261 1136 -571 214 -213 338 -396 464 -690 34 -77 82 -238 106 -350 37
-176 50 -434 32 -615 -37 -364 -173 -722 -384 -1007 -82 -111 -190 -233 -205
-233 -8 0 -479 465 -479 473 0 2 10 15 23 29 207 227 337 512 365 798 15 157
2 329 -34 473 -96 380 -363 712 -709 885 -77 38 -190 82 -247 96 l-27 6 -1
-1647 c0 -907 0 -1665 0 -1685 l0 -37 -272 4 c-289 4 -291 4 -463 37 -861 162
-1533 888 -1638 1768 -21 172 -14 427 14 580 6 30 13 71 16 90 8 57 79 280
116 366 33 75 93 196 120 239 96 155 180 266 270 362 l49 51 239 -239 c131
-131 239 -240 239 -242 0 -4 -19 -27 -68 -82 -107 -120 -194 -274 -255 -450
-19 -55 -35 -104 -36 -110 0 -5 -4 -23 -7 -40 -19 -105 -26 -167 -28 -254 -13
-555 315 -1066 825 -1284 79 -34 173 -67 191 -67 4 0 7 708 8 1573 0 864 0
1623 0 1684 l0 113 268 -4 c183 -2 300 -9 372 -20z"/>
</g>
</svg>
