<?xml version="1.0" standalone="no"?>
<!DOCTYPE svg PUBLIC "-//W3C//DTD SVG 20010904//EN"
 "http://www.w3.org/TR/2001/REC-SVG-20010904/DTD/svg10.dtd">
<svg version="1.0" xmlns="http://www.w3.org/2000/svg"
 width="512.000000pt" height="512.000000pt" viewBox="0 0 512.000000 512.000000"
 preserveAspectRatio="xMidYMid meet">
<metadata>
Created by potrace 1.14, written by Peter Selinger 2001-2017
</metadata>
<g transform="translate(0.000000,512.000000) scale(0.100000,-0.100000)"
fill="#000000" stroke="none">
<path d="M2369 5116 c-2 -2 -34 -6 -70 -10 -170 -16 -411 -69 -584 -129 -709
-247 -1287 -811 -1550 -1513 -36 -95 -98 -303 -109 -361 -2 -15 -9 -53 -15
-83 -29 -159 -36 -244 -35 -470 0 -113 4 -234 8 -270 5 -36 10 -72 11 -80 15
-120 58 -300 108 -450 17 -52 32 -97 32 -100 1 -5 19 -46 62 -144 137 -308
366 -620 630 -858 347 -312 840 -548 1288 -614 22 -3 51 -8 65 -10 120 -20
464 -26 614 -11 623 62 1234 376 1651 849 131 148 254 323 329 468 22 41 47
89 56 105 81 147 193 495 225 696 24 151 30 242 30 439 -1 201 -10 320 -35
445 -24 122 -30 147 -54 233 -166 590 -523 1084 -1038 1436 -53 36 -100 66
-104 66 -4 0 -15 6 -23 14 -20 18 -257 137 -331 166 -142 57 -380 128 -490
146 -14 2 -38 6 -55 9 -16 3 -50 8 -75 11 -25 3 -56 8 -70 11 -28 5 -466 14
-471 9z m956 -769 c171 -34 357 -112 511 -213 173 -113 360 -326 456 -519 32
-64 84 -194 94 -237 2 -10 6 -27 9 -38 54 -215 53 -460 -1 -674 -58 -232 -200
-479 -364 -634 -116 -110 -257 -209 -376 -262 -38 -17 -78 -35 -89 -40 -44
-20 -225 -69 -281 -75 -32 -4 -72 -9 -89 -11 -16 -2 -90 -4 -162 -5 l-133 -1
0 -527 c0 -289 0 -543 0 -563 l0 -37 -272 4 c-150 2 -291 6 -313 10 -136 20
-277 53 -393 91 -850 277 -1420 1077 -1407 1969 3 153 8 218 26 315 6 30 13
71 16 90 8 57 79 280 116 366 33 75 93 196 120 239 97 155 180 266 270 362
l49 52 57 -40 c31 -22 81 -56 111 -77 192 -129 400 -275 400 -280 0 -4 -28
-34 -62 -67 -181 -176 -289 -352 -367 -596 -12 -37 -15 -49 -31 -129 -124
-625 214 -1262 801 -1513 79 -34 173 -67 191 -67 4 0 8 579 8 1288 0 708 0
1412 0 1565 l0 279 513 -5 c416 -3 527 -7 592 -20z"/>
<path d="M2870 3686 c-1 -2 -1 -1323 -1 -1344 1 -22 2 -22 144 -20 204 3 319
34 444 119 69 48 183 165 183 188 0 5 3 11 8 13 28 12 88 178 100 276 9 75 9
87 -2 181 -21 187 -134 364 -303 477 -120 79 -223 106 -425 109 -82 1 -148 2
-148 1z"/>
</g>
</svg>
